<svg width="680" height="580" viewBox="0 0 680 580" fill="none" xmlns="http://www.w3.org/2000/svg">
<rect width="680" height="580" fill="#E1F5FF"/>
<path d="M194.667 477C183.208 477 173.396 472.917 165.229 464.75C157.063 456.583 152.986 446.778 153 435.333V143.667C153 132.208 157.083 122.396 165.25 114.229C173.417 106.063 183.222 101.986 194.667 102H382.167V143.667H194.667V435.333H486.333V247.833H528V435.333C528 446.792 523.917 456.604 515.75 464.771C507.583 472.938 497.778 477.014 486.333 477H194.667ZM340.5 372.833L314.458 315.542L257.167 289.5L314.458 263.458L340.5 206.167L366.542 263.458L423.833 289.5L366.542 315.542L340.5 372.833ZM444.667 247.833L424.875 205.125L382.167 185.333L424.875 165.542L444.667 122.833L464.458 165.542L507.167 185.333L464.458 205.125L444.667 247.833Z" fill="#778AF7"/>
</svg>
